<?xml version="1.0" encoding="utf-8"?>
<!-- Generator: Adobe Illustrator 17.0.0, SVG Export Plug-In . SVG Version: 6.00 Build 0)  -->
<!DOCTYPE svg PUBLIC "-//W3C//DTD SVG 1.1//EN" "http://www.w3.org/Graphics/SVG/1.1/DTD/svg11.dtd">
<svg version="1.1" id="Layer_1" xmlns="http://www.w3.org/2000/svg" xmlns:xlink="http://www.w3.org/1999/xlink" x="0px" y="0px"
	 width="300px" height="100px" viewBox="0 0 300 100" enable-background="new 0 0 300 100" xml:space="preserve">
<rect x="82.754" y="35.746" fill="none" width="206.504" height="74.293"/>
<text transform="matrix(1 0 0 1 82.7539 66.4492)" font-family="'HelveticaNeue-UltraLight'" font-size="43.0045">CloudSong</text>
<path fill="#3CBEEE" d="M75.307,51.873c-0.564-0.855-1.23-1.605-1.973-2.239c3.048-4.87,2.427-10.445-1.698-14.571
	c-0.587-0.587-3.151-2.296-6.515-2.83c-1.717-0.273-4.905,0.312-5.417,0.484c0,0-5.137-11.363-17.589-10.431
	c-12.453,0.936-15.722,11.987-15.722,20.547c-4.047,1.868-9.026,5.449-9.026,11.209c0,8.535,5.88,11.808,11.314,13.217l43.665-0.084
	C77.36,63.839,78.632,56.894,75.307,51.873z"/>
<polygon fill="#FFFFFF" points="43.171,57.422 37.1,52.206 35.677,52.228 35.698,46.919 37.131,46.917 43.121,41.572 "/>
<g>
	<path fill="#FFFFFF" d="M47.333,45.462l-2.428,2.387c0.595,0.336,0.997,0.966,0.997,1.686c0,0.457-0.162,0.877-0.432,1.209
		l2.266,2.5c0.961-0.954,1.556-2.265,1.556-3.711C49.292,47.896,48.529,46.43,47.333,45.462z"/>
	<path fill="#FFFFFF" d="M53.885,49.534c0-2.883-1.276-5.476-3.299-7.27l-2.402,2.361c1.412,1.186,2.311,2.945,2.311,4.909
		c0,1.796-0.751,3.421-1.959,4.594l2.256,2.488C52.695,54.832,53.885,52.318,53.885,49.534z"/>
</g>
<g>
	<path fill="#FFFFFF" d="M58.611,49.536c0-4.123-1.772-7.846-4.602-10.479c-0.028-0.024-0.053-0.052-0.08-0.076l-2.398,2.354
		c0.992,0.891,1.822,1.951,2.441,3.132c0.799,1.521,1.248,3.242,1.248,5.068c0,1.872-0.478,3.639-1.313,5.186
		c-0.582,1.076-1.338,2.045-2.228,2.872l-0.013,0.011l2.252,2.494C56.801,57.462,58.611,53.703,58.611,49.536z"/>
</g>
</svg>
