<?xml version="1.0" encoding="utf-8"?>
<!-- Generator: Adobe Illustrator 17.0.0, SVG Export Plug-In . SVG Version: 6.00 Build 0)  -->
<!DOCTYPE svg PUBLIC "-//W3C//DTD SVG 1.1//EN" "http://www.w3.org/Graphics/SVG/1.1/DTD/svg11.dtd">
<svg version="1.1" id="Layer_1" xmlns="http://www.w3.org/2000/svg" xmlns:xlink="http://www.w3.org/1999/xlink" x="0px" y="0px"
	 width="300px" height="100px" viewBox="0 0 300 100" enable-background="new 0 0 300 100" xml:space="preserve">
<rect x="82.754" y="35.746" fill="none" width="206.504" height="74.293"/>
<text transform="matrix(1 0 0 1 82.7539 66.4492)" font-family="'HelveticaNeue-UltraLight'" font-size="43.0045">CloudSong</text>
<path fill="#3CBEEE" d="M75.307,51.873c-0.564-0.855-1.23-1.605-1.973-2.239c3.048-4.87,2.427-10.445-1.698-14.571
	c-0.587-0.587-3.151-2.296-6.515-2.83c-1.717-0.273-4.905,0.312-5.417,0.484c0,0-5.137-11.363-17.589-10.431
	c-12.453,0.936-15.722,11.987-15.722,20.547c-4.047,1.868-9.026,5.449-9.026,11.209c0,8.535,5.88,11.808,11.314,13.217l43.665-0.084
	C77.36,63.839,78.632,56.894,75.307,51.873z"/>
<polygon fill="#FFFFFF" points="41.531,59.272 34.035,52.832 32.278,52.86 32.304,46.305 34.074,46.303 41.469,39.704 "/>
<g>
	<path fill="#FFFFFF" d="M46.669,44.506l-2.998,2.947c0.734,0.415,1.231,1.192,1.231,2.082c0,0.564-0.2,1.083-0.533,1.493
		l2.798,3.087c1.186-1.178,1.921-2.796,1.921-4.581C49.087,47.512,48.145,45.702,46.669,44.506z"/>
	<path fill="#FFFFFF" d="M54.758,49.534c0-3.559-1.575-6.761-4.073-8.975l-2.966,2.915c1.743,1.464,2.853,3.636,2.853,6.06
		c0,2.217-0.927,4.224-2.418,5.671l2.785,3.072C53.289,56.075,54.758,52.971,54.758,49.534z"/>
</g>
<g>
	<path fill="#FFFFFF" d="M60.592,49.536c0-5.09-2.188-9.687-5.682-12.937c-0.034-0.03-0.065-0.064-0.099-0.094l-2.961,2.906
		c1.225,1.1,2.249,2.409,3.014,3.867c0.986,1.878,1.541,4.002,1.541,6.257c0,2.311-0.59,4.492-1.621,6.403
		c-0.719,1.328-1.652,2.525-2.751,3.546l-0.016,0.013l2.78,3.079C58.358,59.322,60.592,54.681,60.592,49.536z"/>
</g>
</svg>
