<?xml version="1.0" encoding="utf-8"?>
<!-- Generator: Adobe Illustrator 17.0.0, SVG Export Plug-In . SVG Version: 6.00 Build 0)  -->
<!DOCTYPE svg PUBLIC "-//W3C//DTD SVG 1.1//EN" "http://www.w3.org/Graphics/SVG/1.1/DTD/svg11.dtd">
<svg version="1.1" id="Layer_1" xmlns="http://www.w3.org/2000/svg" xmlns:xlink="http://www.w3.org/1999/xlink" x="0px" y="0px"
	 width="100px" height="100px" viewBox="0 0 100 100" enable-background="new 0 0 100 100" xml:space="preserve">
<path fill="#3FBDEE" stroke="#3CBEEE" stroke-miterlimit="10" d="M91.062,57.256c-0.838-1.271-1.828-2.385-2.932-3.327
	c4.53-7.238,3.607-15.523-2.524-21.653c-0.873-0.873-4.682-3.412-9.682-4.206c-2.552-0.405-7.29,0.464-8.05,0.719
	c0,0-7.634-16.887-26.14-15.501c-18.506,1.39-23.364,17.813-23.364,30.534c-6.014,2.775-13.413,8.097-13.413,16.657
	c0,12.684,8.737,17.548,16.814,19.641l64.891-0.125C94.114,75.038,96.004,64.718,91.062,57.256z"/>
<polygon fill="#FFFFFF" points="40.868,68.252 29.728,58.681 27.117,58.723 27.155,48.981 29.786,48.978 40.775,39.172 "/>
<g>
	<path fill="#FFFFFF" d="M48.376,47.833l-3.609,3.547c0.884,0.499,1.481,1.434,1.481,2.506c0,0.679-0.241,1.304-0.642,1.798
		l3.368,3.716c1.428-1.418,2.313-3.366,2.313-5.514C51.287,51.451,50.153,49.272,48.376,47.833z"/>
	<path fill="#FFFFFF" d="M59.843,53.531c0-4.284-1.896-8.139-4.903-10.804l-3.57,3.509c2.098,1.762,3.434,4.376,3.434,7.295
		c0,2.669-1.116,5.085-2.91,6.826l3.352,3.698C58.075,61.403,59.843,57.667,59.843,53.531z"/>
</g>
<g>
	<path fill="#FFFFFF" d="M68.619,53.824c0-6.127-2.634-11.661-6.839-15.573c-0.041-0.036-0.078-0.077-0.119-0.113l-3.564,3.498
		c1.475,1.324,2.707,2.899,3.628,4.655c1.186,2.26,1.855,4.817,1.855,7.532c0,2.782-0.71,5.407-1.951,7.708
		c-0.866,1.598-1.988,3.039-3.312,4.268l-0.02,0.016l3.346,3.706C65.93,65.603,68.619,60.018,68.619,53.824z"/>
</g>
</svg>
